# xmcd
#
# Track frame offsets:
#	182
#	23387
#	49167
#	71297
#	91120
#	112945
#	145270
#	161972
#	179972
#	200127
#
# Disc length: 2985 seconds
#
# Revision: 1
# Processed by: cddbd v1.4PL0 Copyright (c) Steve Scherf et al.
# Submitted via: EasyCDDAExtractor 5.0.7
#
DISCID=890ba70a
DTITLE=Binomio de oro - Fuera de serie
DYEAR=1982
DGENRE=vocal
TTITLE0=Enamorado de ti
TTITLE1=Soy amigo del amor
TTITLE2=El conquistador
TTITLE3=Navidad
TTITLE4=Lleno de ti
TTITLE5=Mosaico no. 2
TTITLE6=De nuevo en tu ventana
TTITLE7=Cuando decidas
TTITLE8=Complaciendo ami gente
TTITLE9=Con las frases mías
EXTD=
EXTT0=
EXTT1=
EXTT2=
EXTT3=
EXTT4=
EXTT5=
EXTT6=
EXTT7=
EXTT8=
EXTT9=
PLAYORDER=
